<svg xmlns="http://www.w3.org/2000/svg" width="14" height="43" viewBox="0 0 14 43">
    <path fill="#FFF" fill-rule="nonzero" d="M2.897 40.797v-1.662l-2.018.84 2.018.822zm9.832-11.595l-1.477-1.382-1.476 1.307v3.044h.916v-2.652h1.028v2.652h1.009V29.2zm-1.458-2.95l2.056-1.849H9.271l2 1.849zm-.878-5.377c-.412 0-.617.248-.617.746v1.569h1.29v-1.55c0-.51-.225-.765-.673-.765zm-.075-5.396c-.362 0-.542.26-.542.784v1.53h1.14v-1.512c0-.535-.2-.802-.598-.802zm-8.71 5.19c-.362 0-.543.262-.543.784v1.531h1.122v-1.512c0-.535-.193-.803-.58-.803zm1.29-8.57v-1.662l-2.02.822 2.02.84zM0 29.967h5.065V31.2H1.103l3.962 1.755v1.064l-3.962 1.755h3.962v2.465l-1.121.467v2.52l1.121.467V43L0 40.834v-1.792l4.804-2.054H0v-1.98l3.44-1.586L0 31.984v-2.017zm10.393-10.38c.249 0 .467.033.654.102.187.068.342.155.467.261.125.106.227.246.308.42.081.175.144.336.187.486.044.15.072.345.084.588.013.243.02.439.02.588 0 .15.03.352.093.607.062.255.093.439.093.55H14v2.353l-1.682 1.494L14 28.586v4.78H8.935V28.51l1.663-1.494-1.663-1.53V21.62c0-1.356.554-2.035 1.663-2.035h-.205zM4.019 25.02h1.046v4.051H0V25.02h1.065v2.838h.916v-2.764H3.01v2.764h1.01V25.02zm6.074-10.867c.287 0 .555.075.804.224.25.15.43.36.542.635.112-.311.274-.523.486-.635.212-.112.499-.168.86-.168h1.01v1.213h-.842c-.41 0-.682.075-.813.225-.13.149-.196.435-.196.858v1.289h1.85v1.213H8.73v-2.875c0-.597.093-1.077.28-1.438.187-.36.549-.541 1.084-.541zm-8.729 5.172c.3 0 .574.078.823.233.25.156.43.364.542.626.112-.324.271-.539.477-.644.205-.106.495-.16.869-.16h.99v1.214c-.112 0-.277-.03-.495-.093-.218-.062-.374-.062-.467 0a.456.456 0 0 1-.346.056c-.137-.025-.237.028-.3.159-.061.13-.114.24-.158.327-.044.087-.065.27-.065.55V22.9h1.831v1.195H0l.019-2.856c0-.61.09-1.096.27-1.457.181-.36.54-.541 1.075-.541v.084zm11.384-9.877h1.046v4.033H8.73V9.448h1.047v2.819h.916V9.504h1.028v2.763h1.009l.019-2.82zM0 17.402h5.065v1.232H0v-1.232zm12.187-12.94c1.072 0 1.607.635 1.607 1.905v2.352H12.71V6.367c0-.423-.155-.635-.467-.635-.2 0-.33.106-.393.318-.062.211-.093.47-.093.774 0 .305-.022.613-.065.925a1.256 1.256 0 0 1-.421.784c-.237.211-.58.317-1.028.317-.486 0-.86-.162-1.122-.485-.261-.324-.392-.735-.392-1.233V4.705h1.065v2.222c0 .448.156.672.468.672.2 0 .327-.109.383-.327.056-.217.08-.479.075-.784a6.43 6.43 0 0 1 .046-.915c.038-.305.172-.566.402-.784.23-.218.57-.327 1.019-.327zM11.252 0h1.888c.436.299.654.846.654 1.643v2.334H12.71V1.643c0-.41-.155-.616-.467-.616-.162 0-.28.078-.355.233a1.252 1.252 0 0 0-.103.58c.006.23-.006.478-.037.746a4.401 4.401 0 0 1-.15.747 1.06 1.06 0 0 1-.448.579c-.231.155-.533.233-.907.233-.486 0-.86-.165-1.122-.495-.261-.33-.392-.744-.392-1.241V0h1.065v2.203c0 .448.156.672.468.672.249 0 .386-.18.41-.541l.094-1.28c.038-.49.2-.842.486-1.054zM.02 3.08h5.046V4.8L1.271 7.076h3.794v2.465l-1.121.485v2.502l1.121.467v1.4c0 1.606-.828 2.41-2.486 2.41C.86 16.804 0 15.975 0 14.32v-1.176h1.103c0 .087-.006.261-.019.522-.012.262.019.44.094.533.074.093.087.236.037.429-.05.193-.01.327.121.401.131.075.215.165.253.271.037.106.18.178.43.215.249.037.458.056.626.056.473 0 .835-.084 1.084-.252.25-.168.374-.476.374-.924v-.542L.12 12.136v-1.81L4.907 8.29H.12V6.442l3.515-2.129H.12V3.081H.02z"/>
</svg>
