<svg xmlns="http://www.w3.org/2000/svg" width="16" height="17" viewBox="0 0 16 17">
    <g fill="none" fill-rule="evenodd" transform="translate(1)">
        <circle cx="10" cy="12" r="5" fill="#9388E7" opacity=".588"/>
        <path stroke="#DEDAFF" stroke-width=".605" d="M13.341 16H.66C.293 16 0 15.641 0 15.193V2.407C0 1.96.293 1.6.659 1.6H13.34c.366 0 .659.359.659.807v12.797c0 .437-.293.796-.659.796zM.66 1.936c-.21 0-.384.214-.384.471v12.797c0 .258.173.47.384.47H13.34c.21 0 .384-.212.384-.47V2.407c0-.257-.173-.47-.384-.47H.66z"/>
        <path stroke="#DEDAFF" stroke-width=".605" d="M13.86 6.4H.14C.065 6.4 0 6.338 0 6.267c0-.071.065-.134.14-.134h13.72c.075 0 .14.063.14.134 0 .07-.065.133-.14.133zM3.993 4c-.083 0-.156-.119-.156-.254V.254C3.837.12 3.91 0 3.993 0s.155.119.155.254v3.509c0 .135-.072.237-.155.237zm5.703 0c-.083 0-.155-.119-.155-.254V.254C9.54.12 9.613 0 9.696 0s.156.119.156.254v3.509c0 .135-.073.237-.156.237z"/>
    </g>
</svg>
