<svg xmlns="http://www.w3.org/2000/svg" width="13" height="21" viewBox="0 0 13 21">
    <path fill="#FFF" fill-rule="evenodd" d="M.127 12.15a.636.636 0 0 0 .088.336l3.79 6.978.2.383.302.542.325.611c.598-.367.804-1.18.46-1.817l-.072-.135-.165-.3-.899-1.657-2.328-4.277h1.47l2.484 4.571.239.431.96 1.779.423.768a.634.634 0 0 0 .555.366.616.616 0 0 0 .547-.347h.009l3.454-6.368.828-1.526c.06-.1.09-.218.088-.336 0-.367-.28-.664-.624-.666H9.342a.621.621 0 0 0-.548.346L7.59 14.07a1.39 1.39 0 0 0-.13 1.003c.085.34.294.63.58.804l.475-.861v-.01l1.19-2.192h1.479l-.66 1.2h.007l-2.572 4.72-2.177-4.018c-.007-.008-.007-.019-.016-.028l-1.551-2.856a.623.623 0 0 0-.547-.347H.753a.604.604 0 0 0-.443.194.683.683 0 0 0-.183.471zM7.721 1.924l.07.135.167.3.9 1.653 2.326 4.278H9.712L7.228 3.72l-.239-.43-.96-1.78-.421-.766a.627.627 0 0 0-.553-.366.615.615 0 0 0-.547.345h-.009L1.046 7.091.216 8.62a.616.616 0 0 0-.089.338c0 .176.066.345.184.47a.604.604 0 0 0 .442.192H3.67a.633.633 0 0 0 .547-.345l1.206-2.238c.167-.303.213-.664.129-1.003a1.307 1.307 0 0 0-.58-.803l-.475.867L3.307 8.29h-1.48l.653-1.197 2.572-4.73 2.176 4.03.018.017 1.548 2.865c.11.212.32.343.548.344h2.918c.344-.001.623-.298.624-.665a.616.616 0 0 0-.088-.337L9.007 1.64l-.203-.385-.3-.553L8.18.104a1.321 1.321 0 0 0-.585.809c-.086.341-.04.705.126 1.01z"/>
</svg>
