<svg xmlns="http://www.w3.org/2000/svg" width="23" height="41" viewBox="0 0 23 41">
    <g fill="#FFF" fill-rule="nonzero">
        <path d="M20.343 32.042v.312c0 .75.243 1.127.729 1.127.334 0 .5-.16.5-.48a.813.813 0 0 0-.34-.671c-.229-.176-.525-.272-.89-.288zm-.82-9.471v-1.487h-.069a.333.333 0 0 0-.148-.012 1.882 1.882 0 0 1-.16.024.615.615 0 0 0-.181.048.473.473 0 0 0-.148.108.592.592 0 0 0-.114.18.715.715 0 0 0-.046.276c0 .447.289.735.866.863zm.82-12.948v.288c0 .767.243 1.151.729 1.151.334 0 .5-.16.5-.48a.813.813 0 0 0-.34-.67c-.229-.177-.525-.273-.89-.289zm-.592-7.648c-.623 0-.934.24-.934.72 0 .303.151.55.455.742.304.192.691.288 1.162.288.638 0 .957-.224.957-.671 0-.32-.152-.58-.456-.78-.304-.2-.698-.3-1.184-.3zm-3.212 34.647v-2.086l5.968 1.054v1.343l-4.579-.767 4.579 1.702v.935l-4.556.096 4.556.816v1.27l-5.968-1.055v-1.942l3.713-.048-3.713-1.318zm2.437-6.067c.091 0 .41.032.957.096 1.534.256 2.392.392 2.574.408v1.127l-.501-.024c.395.32.592.783.592 1.39 0 .368-.122.668-.365.9-.242.231-.561.347-.956.347-.592 0-1.052-.208-1.378-.623-.327-.416-.49-1-.49-1.75 0-.224.007-.408.023-.552a.609.609 0 0 1-.126-.012 2.13 2.13 0 0 1-.102-.024.297.297 0 0 0-.068-.012c-.304 0-.456.288-.456.863 0 .464.076.935.228 1.415-.061 0-.425-.056-1.094-.168-.167-.607-.25-1.143-.25-1.606 0-1.183.47-1.775 1.412-1.775zm-1.321-3.74l1.116.192a7.68 7.68 0 0 0-.068.983c0 .431.129.647.387.647.121 0 .213-.036.273-.108.061-.072.145-.243.25-.515.29-.64.745-.96 1.368-.96 1.093 0 1.632.696 1.617 2.087 0 .543-.046 1.007-.137 1.39-.03 0-.402-.056-1.116-.167.122-.464.182-.872.182-1.223 0-.512-.144-.768-.432-.768a.345.345 0 0 0-.262.108c-.069.072-.164.244-.285.516-.304.687-.752 1.03-1.344 1.03-1.094 0-1.64-.67-1.64-2.013 0-.48.03-.88.09-1.2zm0-2.11v-.671l1.184.167v.696c.259.032.566.084.923.156.357.072.65.127.877.167.228.04.364.06.41.06.243 0 .364-.151.364-.455 0-.128-.015-.256-.045-.384l1.07.192c.107.336.16.655.16.96 0 .686-.357 1.046-1.07 1.078-.183 0-.608-.064-1.276-.192-.304-.048-1.413-.248-3.326-.6v-1.318l.729.144zm1.663-4.867c.349 0 .744.056 1.184.167v2.662c.334.048.585-.032.752-.24.167-.208.25-.511.25-.911 0-.48-.106-.943-.318-1.39l1.23.215c.121.48.182.935.182 1.367 0 1.518-.721 2.278-2.164 2.278-.835 0-1.522-.22-2.062-.66-.539-.44-.808-.995-.808-1.666 0-.56.16-1.003.478-1.33.319-.329.744-.492 1.276-.492zm-1.686-3.333c.35.208.82.383 1.412.527-.03.352.152.6.547.744.395.143 1.367.343 2.916.599v1.343l-.32-.072c-1.973-.352-3.484-.584-4.532-.696v-1.222l.752.072c-.32-.224-.543-.428-.672-.612-.13-.184-.164-.411-.103-.683zm-.934-4.484l1.299.216c-.213.448-.32.847-.32 1.199 0 .495.21.903.627 1.223.418.32.953.48 1.606.48.456 0 .812-.109 1.07-.325.259-.215.388-.523.388-.923 0-.335-.099-.719-.296-1.15l1.344.24c.121.447.182.846.182 1.198 0 .72-.232 1.29-.695 1.714-.463.424-1.09.636-1.88.636-1.062 0-1.932-.284-2.607-.851-.676-.568-1.014-1.3-1.014-2.194 0-.416.099-.903.296-1.463zm2.278-3.884c.273 0 .592.032.957.096 1.2.208 2.058.343 2.574.407v1.103l-.501-.024c.395.32.592.792.592 1.415 0 .368-.122.663-.365.887-.242.224-.561.336-.956.336-.592 0-1.052-.204-1.378-.612-.327-.407-.49-.987-.49-1.738 0-.24.007-.424.023-.551a1.033 1.033 0 0 0-.296-.048c-.304 0-.456.287-.456.863 0 .463.076.935.228 1.414-.061 0-.425-.063-1.094-.191-.167-.608-.25-1.143-.25-1.607 0-1.167.47-1.75 1.412-1.75zm-1.344-3.38c.365.223.835.39 1.412.503-.03.367.145.62.524.755.38.136 1.36.34 2.939.611V7.97l-.32-.072a57.697 57.697 0 0 0-4.532-.695V5.955c.167 0 .418.032.752.096-.32-.24-.543-.452-.672-.635-.13-.184-.164-.404-.103-.66zM16.54 1.374V.033l5.968 1.03v1.271l-.433-.071c.35.367.524.783.524 1.246 0 .496-.182.891-.547 1.187-.364.296-.85.444-1.458.444-.804 0-1.503-.22-2.095-.66-.593-.44-.889-.955-.889-1.546 0-.496.22-.92.66-1.27l-1.73-.289zM.329 14.648a6.207 6.207 0 0 0-.327 2.03c0 2.24 1.052 3.82 2.56 3.832 1.109.014 1.733-1.125 2.104-1.985.38-.883.62-1.178.962-1.175.519.005.754.705.754 1.355 0 .894-.117 1.384-.408 2.136l-.12.28 1.737.315c.211-.543.393-1.523.407-2.537 0-2.381-1.044-3.938-2.651-3.956-.884-.019-1.555.595-2.107 1.89-.359.787-.599 1.277-.963 1.277-.322 0-.665-.419-.665-1.294a4.422 4.422 0 0 1 .297-1.697l.088-.21-1.679-.316.011.055zM.144 8.834v1.75c0 .545.138.952.643 1.191l7.102 3.366V12.76l-1.163-.476.002-2.905c.272-.071 1.161-.28 1.161-.28V7L.144 8.834zM.08 23.73v-2.267l7.75 1.418v2.268L.077 23.73h.002zm4.271 5.762l1.076-.236L.144 27.04v-2.403l7.735 3.572v2.396l-6.551 1.96a.438.438 0 0 0-.258.21C.73 33.479.471 34.227.302 35l-.163-.03v-3.652c.017-.495.163-.894.656-1.03l3.558-.796H4.35zm.79-17.86l-2.167-.903c.021.011-.448-.187-.74-.301l.67-.155 2.235-.524v1.884h.002z"/>
    </g>
</svg>
